# Blender v2.79 (sub 0) OBJ File: ''
# www.blender.org
mtllib conveyor_north_down.mtl
o Grinder_Cube_Cube.001
v 0.100000 -0.500000 -0.100000
v 0.100000 -0.500000 0.100000
v -0.100000 -0.500000 0.100000
v -0.100000 -0.500000 -0.100000
v -0.100000 0.100000 0.100000
v -0.100000 0.100000 -0.100000
v 0.100000 0.100000 0.100000
v 0.100000 0.100000 -0.100000
vt 1.000000 0.000000
vt 1.000000 1.000000
vt 0.000000 1.000000
vt 0.000000 0.000000
vt 1.000000 0.000000
vt 1.000000 0.187500
vt 0.000000 0.187500
vt 0.000000 0.000000
vt 1.000000 0.000000
vt 1.000000 1.000000
vt 0.000000 1.000000
vt 0.000000 0.000000
vt 1.000000 0.000000
vt 1.000000 0.187500
vt 0.000000 0.187500
vt 0.000000 0.000000
vt 1.000000 0.187499
vt 0.000000 0.187500
vt 0.000000 0.000000
vt 1.000000 0.000000
vt 1.000000 0.187499
vt 0.000000 0.187500
vn 0.0000 -1.0000 0.0000
vn -1.0000 0.0000 -0.0000
vn 0.0000 1.0000 -0.0000
vn 1.0000 0.0000 0.0000
vn 0.0000 -0.0000 -1.0000
vn -0.0000 0.0000 1.0000
usemtl None.000
s 1
f 1/1/1 2/2/1 3/3/1 4/4/1
f 4/5/2 3/6/2 5/7/2 6/8/2
f 6/9/3 5/10/3 7/11/3 8/12/3
f 8/13/4 7/14/4 2/15/4 1/16/4
f 4/4/5 6/9/5 8/17/5 1/18/5
f 5/19/6 3/20/6 2/21/6 7/22/6
o Grinder_Cube_Cube.000
v -0.100000 -0.100000 -0.100000
v -0.100000 0.100000 -0.100000
v -0.100000 0.100000 0.100000
v -0.100000 -0.100000 0.100000
v -0.500000 0.100000 0.100000
v -0.500000 -0.100000 0.100000
v -0.500000 0.100000 -0.100000
v -0.500000 -0.100000 -0.100000
vt 1.000000 0.000000
vt 1.000000 1.000000
vt 0.000000 1.000000
vt 0.000000 0.000000
vt 1.000000 0.000000
vt 1.000000 0.187500
vt 0.000000 0.187500
vt 0.000000 0.000000
vt 1.000000 0.000000
vt 1.000000 1.000000
vt 0.000000 1.000000
vt 0.000000 0.000000
vt 1.000000 0.000000
vt 1.000000 0.187500
vt 0.000000 0.187500
vt 0.000000 0.000000
vt 1.000000 0.187499
vt 0.000000 0.187500
vt 0.000000 0.000000
vt 1.000000 0.000000
vt 1.000000 0.187499
vt 0.000000 0.187500
vn 1.0000 -0.0000 0.0000
vn -0.0000 0.0000 1.0000
vn -1.0000 -0.0000 -0.0000
vn 0.0000 -0.0000 -1.0000
vn -0.0000 -1.0000 0.0000
vn 0.0000 1.0000 -0.0000
usemtl None.001
s 1
f 9/23/7 10/24/7 11/25/7 12/26/7
f 12/27/8 11/28/8 13/29/8 14/30/8
f 14/31/9 13/32/9 15/33/9 16/34/9
f 16/35/10 15/36/10 10/37/10 9/38/10
f 12/26/11 14/31/11 16/39/11 9/40/11
f 13/41/12 11/42/12 10/43/12 15/44/12
