# Blender v2.79 (sub 0) OBJ File: ''
# www.blender.org
mtllib Sofa.mtl
o Grinder_Cube_Cube.000
v -0.500000 -0.500000 0.500000
v -0.500000 -0.000000 0.500000
v -0.500000 0.500000 -0.500000
v -0.500000 -0.500000 -0.500000
v 0.500000 0.500000 -0.500000
v 0.500000 -0.500000 -0.500000
v 0.500000 -0.000000 0.500000
v 0.500000 -0.500000 0.500000
v 0.500000 0.500000 -0.200000
v 0.500000 -0.500000 -0.000000
v -0.500000 0.500000 -0.200000
v -0.500000 -0.500000 -0.000000
v 0.500000 0.000000 -0.500000
v 0.500000 -0.000000 0.500000
v -0.500000 -0.000000 0.500000
v -0.500000 0.000000 -0.500000
v 0.500000 0.000000 -0.200000
v -0.500000 0.000000 -0.200000
v 0.500000 -0.000000 -0.150000
v 0.500000 -0.500000 0.250000
v -0.500000 -0.000000 -0.150000
v -0.500000 -0.500000 0.250000
v -0.500000 -0.000000 -0.150000
v 0.500000 -0.000000 -0.150000
vt 0.300000 0.500000
vt 0.300000 1.000000
vt 0.000000 1.000000
vt 0.000000 0.500000
vt 1.000000 0.500000
vt 1.000000 1.000000
vt 0.000000 1.000000
vt 0.000000 0.500000
vt 1.000000 1.000000
vt 1.000000 1.000000
vt 1.000000 0.000000
vt 1.000000 0.000000
vt 0.000000 0.000000
vt 0.000000 0.000000
vt 0.250000 0.000000
vt 0.250000 1.000000
vt 0.000000 1.000000
vt 0.000000 0.000000
vt 0.000000 1.000000
vt 1.000000 1.000000
vt 0.000000 0.671750
vt 1.000000 0.671750
vt 1.000000 0.000000
vt 1.000000 1.000000
vt 0.500000 1.000000
vt 0.500000 0.000000
vt 1.000000 0.500000
vt 0.700000 1.000000
vt 0.700000 0.500000
vt 0.350000 0.500000
vt 0.350000 0.500000
vt 0.750000 0.000000
vt 1.000000 0.000000
vt 0.500000 0.000000
vt 1.000000 0.000000
vt 1.000000 0.500000
vt 0.000000 0.500000
vt 0.250000 0.000000
vt 0.650000 0.500000
vt 0.000000 0.500000
vt 0.000000 0.000000
vt 0.000000 0.000000
vt 0.000000 0.000000
vt 1.000000 0.000000
vt 1.000000 0.500000
vt 0.000000 1.000000
vt 1.000000 1.000000
vt 0.000000 1.000000
vt 0.000000 0.500000
vt 1.000000 0.500000
vt 0.650000 0.500000
vn -1.0000 -0.0000 0.0000
vn 0.0000 0.0000 -1.0000
vn 1.0000 0.0000 0.0000
vn -0.7534 0.6575 0.0000
vn 0.0000 -0.0000 1.0000
vn 0.0000 -1.0000 0.0000
vn 0.0000 0.7415 0.6710
vn 0.0000 1.0000 0.0000
vn -0.4241 -0.9056 0.0000
vn -0.7071 -0.7071 0.0000
usemtl None.001
s 1
f 18/1/1 11/2/1 3/3/1 16/4/1
f 16/5/2 3/6/2 5/7/2 13/8/2
f 24/9/3 19/10/1 7/11/1 14/12/4
f 14/12/5 7/11/5 2/13/5 15/14/5
f 22/15/6 20/16/6 8/17/6 1/18/6
f 19/10/7 21/19/7 2/13/8 7/11/8
f 5/20/8 3/3/8 11/21/7 9/22/7
f 4/23/6 6/24/6 10/25/6 12/26/6
f 13/27/3 5/20/3 9/28/3 17/29/3
f 23/30/1 21/31/9 11/2/1 18/1/1
f 22/32/1 23/30/1 18/1/1 12/26/1
f 6/33/3 13/27/3 17/29/3 10/34/3
f 8/35/5 14/36/5 15/37/5 1/18/5
f 20/38/3 24/39/3 14/40/4 8/41/3
f 4/23/2 16/5/2 13/8/2 6/42/2
f 12/26/1 18/1/1 16/4/1 4/43/1
f 10/34/3 17/29/3 24/39/3 20/38/3
f 1/44/1 15/45/10 23/30/1 22/32/1
f 15/14/10 2/13/6 21/19/9 23/46/1
f 9/47/7 11/48/7 21/49/7 19/50/7
f 12/26/6 10/25/6 20/16/6 22/15/6
f 17/29/3 9/28/3 19/51/1 24/39/3
