# Blender v2.79 (sub 0) OBJ File: ''
# www.blender.org
mtllib Table.mtl
o Cube.005_Cube.006
v 0.212500 -0.500027 0.212500
v 0.212500 -0.500027 0.312500
v 0.212500 0.418315 0.312500
v 0.212500 0.418315 0.212500
v 0.312500 0.418315 0.312500
v 0.312500 0.418315 0.212500
v 0.312500 -0.500027 0.312500
v 0.312500 -0.500027 0.212500
vt 0.400000 1.000000
vt 0.200001 1.000000
vt 0.200000 0.000000
vt 0.400000 0.000000
vt 0.800000 0.000000
vt 1.000000 0.000000
vt 1.000000 0.108892
vt 0.800000 0.108892
vt 0.200000 1.000000
vt 0.000001 1.000000
vt 0.000000 0.000000
vt 0.200000 0.000000
vt 0.800000 0.217784
vt 0.800000 0.108892
vt 1.000000 0.108892
vt 1.000000 0.217784
vt 0.600000 0.000000
vt 0.600000 1.000000
vt 0.600000 0.000000
vt 0.800000 0.000000
vt 0.800000 1.000000
vt 0.600000 1.000000
vn -1.0000 0.0000 0.0000
vn 0.0000 1.0000 0.0000
vn 1.0000 0.0000 0.0000
vn 0.0000 -1.0000 0.0000
vn 0.0000 0.0000 -1.0000
vn 0.0000 -0.0000 1.0000
usemtl None.006
s 1
f 1/1/1 2/2/1 3/3/1 4/4/1
f 4/5/2 3/6/2 5/7/2 6/8/2
f 6/9/3 5/10/3 7/11/3 8/12/3
f 8/13/4 7/14/4 2/15/4 1/16/4
f 4/4/5 6/17/5 8/18/5 1/1/5
f 5/19/6 3/20/6 2/21/6 7/22/6
o Cube.004_Cube.005
v -0.312500 -0.500027 0.212500
v -0.312500 -0.500027 0.312500
v -0.312500 0.418315 0.312500
v -0.312500 0.418315 0.212500
v -0.212500 0.418315 0.312500
v -0.212500 0.418315 0.212500
v -0.212500 -0.500027 0.312500
v -0.212500 -0.500027 0.212500
vt 0.400000 1.000000
vt 0.200001 1.000000
vt 0.200000 0.000000
vt 0.400000 0.000000
vt 0.800000 0.000000
vt 1.000000 0.000000
vt 1.000000 0.108892
vt 0.800000 0.108892
vt 0.200000 1.000000
vt 0.000001 1.000000
vt 0.000000 0.000000
vt 0.200000 0.000000
vt 0.800000 0.217784
vt 0.800000 0.108892
vt 1.000000 0.108892
vt 1.000000 0.217784
vt 0.600001 0.000000
vt 0.800000 0.000000
vt 0.800000 1.000000
vt 0.600000 1.000000
vt 0.400000 0.000000
vt 0.600000 0.000000
vt 0.600000 1.000000
vt 0.400001 1.000000
vn -1.0000 0.0000 0.0000
vn 0.0000 1.0000 0.0000
vn 1.0000 0.0000 0.0000
vn 0.0000 -1.0000 0.0000
vn 0.0000 0.0000 -1.0000
vn 0.0000 -0.0000 1.0000
usemtl None.006
s 1
f 9/23/7 10/24/7 11/25/7 12/26/7
f 12/27/8 11/28/8 13/29/8 14/30/8
f 14/31/9 13/32/9 15/33/9 16/34/9
f 16/35/10 15/36/10 10/37/10 9/38/10
f 12/39/11 14/40/11 16/41/11 9/42/11
f 13/43/12 11/44/12 10/45/12 15/46/12
o Cube.003_Cube.004
v -0.312500 -0.500027 -0.312500
v -0.312500 -0.500027 -0.212500
v -0.312500 0.418315 -0.212500
v -0.312500 0.418315 -0.312500
v -0.212500 0.418315 -0.212500
v -0.212500 0.418315 -0.312500
v -0.212500 -0.500027 -0.212500
v -0.212500 -0.500027 -0.312500
vt 0.600000 0.000000
vt 0.800000 0.000000
vt 0.800000 1.000000
vt 0.600000 1.000000
vt 1.000000 0.108892
vt 0.800000 0.108892
vt 0.800000 0.000000
vt 1.000000 0.000000
vt 0.000000 0.000000
vt 0.200000 0.000000
vt 0.200000 1.000000
vt 0.000000 1.000000
vt 0.800000 0.217784
vt 0.800000 0.108892
vt 1.000000 0.108892
vt 1.000000 0.217784
vt 0.400000 0.000000
vt 0.600000 0.000000
vt 0.600000 1.000000
vt 0.400000 1.000000
vt 0.400000 0.000000
vt 0.400000 1.000000
vn -1.0000 0.0000 0.0000
vn 0.0000 1.0000 0.0000
vn 1.0000 0.0000 0.0000
vn 0.0000 -1.0000 0.0000
vn 0.0000 0.0000 -1.0000
vn 0.0000 -0.0000 1.0000
usemtl None.006
s 1
f 17/47/13 18/48/13 19/49/13 20/50/13
f 20/51/14 19/52/14 21/53/14 22/54/14
f 22/55/15 21/56/15 23/57/15 24/58/15
f 24/59/16 23/60/16 18/61/16 17/62/16
f 20/63/17 22/64/17 24/65/17 17/66/17
f 21/56/18 19/67/18 18/68/18 23/57/18
o Cube.002_Cube.003
v 0.212500 -0.500027 -0.312500
v 0.212500 -0.500027 -0.212500
v 0.212500 0.418315 -0.212500
v 0.212500 0.418315 -0.312500
v 0.312500 0.418315 -0.212500
v 0.312500 0.418315 -0.312500
v 0.312500 -0.500027 -0.212500
v 0.312500 -0.500027 -0.312500
vt 0.600000 0.000000
vt 0.800000 0.000000
vt 0.800000 1.000000
vt 0.600000 1.000000
vt 1.000000 0.000000
vt 1.000000 0.108892
vt 0.800000 0.108892
vt 0.800000 0.000000
vt 0.000000 0.000000
vt 0.200000 0.000000
vt 0.200000 1.000000
vt 0.000000 1.000000
vt 0.800000 0.217784
vt 0.800000 0.108892
vt 1.000000 0.108892
vt 1.000000 0.217784
vt 0.200000 0.000000
vt 0.400000 0.000000
vt 0.400000 1.000000
vt 0.200000 1.000000
vt 0.400000 0.000000
vt 0.600000 0.000000
vt 0.600000 1.000000
vt 0.400000 1.000000
vn -1.0000 0.0000 0.0000
vn 0.0000 1.0000 0.0000
vn 1.0000 -0.0000 0.0000
vn 0.0000 -1.0000 0.0000
vn 0.0000 0.0000 -1.0000
vn 0.0000 -0.0000 1.0000
usemtl None.006
s 1
f 25/69/19 26/70/19 27/71/19 28/72/19
f 28/73/20 27/74/20 29/75/20 30/76/20
f 30/77/21 29/78/21 31/79/21 32/80/21
f 32/81/22 31/82/22 26/83/22 25/84/22
f 28/85/23 30/86/23 32/87/23 25/88/23
f 29/89/24 27/90/24 26/91/24 31/92/24
o Cube_Cube.001
v -0.500000 0.399565 0.500000
v -0.500000 0.499565 0.500000
v -0.500000 0.499565 -0.500000
v -0.500000 0.399565 -0.500000
v 0.500000 0.499565 -0.500000
v 0.500000 0.399565 -0.500000
v 0.500000 0.499565 0.500000
v 0.500000 0.399565 0.500000
vt 1.000000 0.000000
vt 1.000000 1.000000
vt 0.000000 1.000000
vt 0.000000 0.000000
vt 1.000000 0.000000
vt 1.000000 0.500000
vt 0.000000 0.500000
vt 0.000000 0.000000
vt 1.000000 0.000000
vt 1.000000 0.500000
vt 0.000000 0.500000
vt 0.000000 0.000000
vt 1.000000 0.000000
vt 1.000000 0.500000
vt 0.000000 0.500000
vt 0.000000 0.000000
vt 1.000000 1.000000
vt 0.000000 1.000000
vt 1.000000 0.000000
vt 1.000000 1.000000
vt 0.000000 1.000000
vt 0.000000 0.000000
vn -1.0000 0.0000 0.0000
vn 0.0000 0.0000 -1.0000
vn 1.0000 0.0000 0.0000
vn 0.0000 0.0000 1.0000
vn 0.0000 -1.0000 -0.0000
vn 0.0000 1.0000 0.0000
usemtl None.006
s 1
f 33/93/25 34/94/25 35/95/25 36/96/25
f 36/97/26 35/98/26 37/99/26 38/100/26
f 38/101/27 37/102/27 39/103/27 40/104/27
f 40/105/28 39/106/28 34/107/28 33/108/28
f 36/109/29 38/101/29 40/104/29 33/110/29
f 37/111/30 35/112/30 34/113/30 39/114/30
